<svg xmlns="http://www.w3.org/2000/svg" id="canvas" viewBox="216.464 358.072 866.452 129.965"><path d="M 270.24,363.34 C 269.02 363.51, 268.22 364.01, 266.80 365.64 C 265.39 367.27, 264.79 368.48, 263.17 371.49 C 261.56 374.51, 260.83 376.67, 258.73 380.71 C 256.63 384.74, 255.33 387.12, 252.66 391.68 C 249.99 396.24, 248.34 398.77, 245.36 403.52 C 242.37 408.27, 240.65 410.84, 237.72 415.43 C 234.79 420.01, 233.26 422.38, 230.70 426.45 C 228.14 430.52, 226.89 432.49, 224.90 435.78 C 222.92 439.07, 221.85 440.50, 220.78 442.91 C 219.70 445.32, 219.71 446.29, 219.54 447.82 C 219.37 449.36, 219.48 449.81, 219.92 450.58 C 220.36 451.36, 221.15 451.56, 221.75 451.71 C 222.34 451.85, 223.04 451.61, 222.91 451.28 C 222.78 450.96, 221.36 450.21, 221.10 450.09 C 220.84 449.96, 221.22 450.49, 221.60 450.66 C 221.98 450.83, 222.46 451.18, 223.02 450.94 C 223.58 450.71, 223.67 450.56, 224.40 449.49 C 225.12 448.42, 225.58 447.82, 226.63 445.59 C 227.68 443.36, 228.06 441.70, 229.66 438.34 C 231.26 434.98, 232.30 432.93, 234.63 428.80 C 236.96 424.67, 238.45 422.29, 241.32 417.70 C 244.18 413.10, 245.90 410.53, 248.97 405.83 C 252.04 401.13, 253.74 398.63, 256.68 394.20 C 259.63 389.76, 261.12 387.48, 263.70 383.68 C 266.28 379.87, 267.78 378.12, 269.58 375.17 C 271.38 372.23, 272.05 371.02, 272.71 368.95 C 273.37 366.88, 273.38 365.95, 272.88 364.83 C 272.39 363.70, 271.45 363.18, 270.24 363.34" style="stroke: black; fill: black;"/><path d="M 273.08,370.47 C 272.25 370.97, 272.16 371.23, 271.67 372.34 C 271.19 373.44, 270.87 374.06, 270.65 375.99 C 270.44 377.93, 270.52 379.22, 270.60 382.02 C 270.67 384.83, 271.03 386.58, 271.03 390.02 C 271.02 393.46, 270.86 395.48, 270.58 399.22 C 270.30 402.97, 270.03 405.01, 269.62 408.75 C 269.20 412.49, 268.95 414.42, 268.52 417.92 C 268.09 421.42, 267.77 423.18, 267.47 426.25 C 267.18 429.31, 267.10 430.76, 267.05 433.23 C 267.00 435.71, 267.06 436.80, 267.22 438.63 C 267.37 440.45, 267.42 441.28, 267.83 442.38 C 268.23 443.47, 268.73 443.67, 269.23 444.12 C 269.73 444.57, 269.88 444.52, 270.34 444.62 C 270.79 444.72, 271.06 444.76, 271.51 444.62 C 271.97 444.48, 272.18 444.43, 272.62 443.90 C 273.06 443.38, 273.45 443.07, 273.71 441.99 C 273.97 440.91, 273.82 440.22, 273.92 438.51 C 274.01 436.81, 274.07 435.82, 274.18 433.47 C 274.29 431.11, 274.33 429.72, 274.46 426.74 C 274.59 423.75, 274.58 422.00, 274.84 418.54 C 275.09 415.08, 275.31 413.17, 275.74 409.44 C 276.17 405.71, 276.46 403.67, 276.99 399.91 C 277.51 396.15, 277.77 394.15, 278.35 390.64 C 278.93 387.12, 279.59 385.35, 279.88 382.36 C 280.16 379.36, 280.13 377.85, 279.77 375.67 C 279.41 373.50, 278.86 372.66, 278.08 371.49 C 277.29 370.32, 276.83 370.02, 275.83 369.82 C 274.84 369.61, 273.91 369.96, 273.08 370.47" style="stroke: black; fill: black;"/><path d="M 232.81,419.55 C 233.50 420.34, 233.95 420.42, 235.38 420.69 C 236.80 420.96, 237.68 421.16, 239.92 420.88 C 242.16 420.61, 243.59 420.03, 246.59 419.32 C 249.59 418.62, 251.44 418.04, 254.93 417.38 C 258.41 416.72, 260.66 416.55, 264.03 416.04 C 267.40 415.53, 269.23 415.58, 271.77 414.85 C 274.30 414.13, 275.75 413.45, 276.69 412.43 C 277.62 411.40, 277.55 410.55, 276.43 409.72 C 275.30 408.89, 273.73 408.45, 271.06 408.28 C 268.40 408.11, 266.55 408.51, 263.11 408.88 C 259.67 409.24, 257.45 409.74, 253.86 410.12 C 250.26 410.51, 248.29 410.45, 245.13 410.81 C 241.96 411.17, 240.31 411.22, 238.01 411.91 C 235.72 412.60, 234.88 413.29, 233.66 414.26 C 232.44 415.24, 232.10 415.71, 231.92 416.77 C 231.75 417.83, 232.12 418.77, 232.81 419.55" style="stroke: black; fill: black;"/><path d="M 325.42,373.75 C 324.35 373.77, 323.91 374.06, 322.67 375.13 C 321.42 376.21, 320.43 376.81, 319.18 379.12 C 317.93 381.43, 317.66 383.31, 316.40 386.67 C 315.15 390.03, 314.46 392.12, 312.92 395.92 C 311.38 399.72, 310.38 401.82, 308.72 405.66 C 307.06 409.50, 306.14 411.52, 304.63 415.13 C 303.12 418.74, 302.27 420.53, 301.18 423.72 C 300.10 426.91, 299.55 428.38, 299.21 431.09 C 298.87 433.80, 298.95 435.06, 299.48 437.27 C 300.01 439.48, 300.51 440.55, 301.86 442.12 C 303.20 443.68, 304.40 444.46, 306.21 445.11 C 308.01 445.75, 309.39 445.81, 310.87 445.33 C 312.36 444.84, 313.24 443.87, 313.64 442.68 C 314.04 441.49, 313.56 440.34, 312.88 439.40 C 312.19 438.47, 311.22 438.27, 310.20 438.01 C 309.19 437.76, 308.64 438.08, 307.79 438.12 C 306.94 438.16, 306.43 438.57, 305.95 438.22 C 305.47 437.87, 305.38 437.58, 305.38 436.36 C 305.38 435.14, 305.55 434.27, 305.96 432.12 C 306.36 429.98, 306.58 428.61, 307.41 425.65 C 308.23 422.68, 308.77 420.82, 310.09 417.29 C 311.41 413.76, 312.29 411.75, 314.00 408.00 C 315.71 404.25, 316.77 402.16, 318.64 398.54 C 320.51 394.93, 321.58 392.98, 323.33 389.91 C 325.08 386.83, 326.36 385.52, 327.40 383.17 C 328.44 380.81, 328.42 379.75, 328.54 378.13 C 328.67 376.50, 328.65 375.93, 328.02 375.06 C 327.40 374.18, 326.49 373.74, 325.42 373.75" style="stroke: black; fill: black;"/><path d="M 339.13,425.20 C 339.54 426.15, 340.00 426.55, 341.23 427.04 C 342.47 427.54, 343.35 427.77, 345.30 427.66 C 347.24 427.54, 348.52 427.21, 350.95 426.46 C 353.39 425.71, 354.82 425.05, 357.47 423.91 C 360.13 422.76, 361.62 422.07, 364.22 420.74 C 366.82 419.41, 368.26 418.68, 370.48 417.25 C 372.70 415.82, 373.80 415.14, 375.32 413.58 C 376.84 412.01, 377.56 411.19, 378.08 409.42 C 378.61 407.64, 378.66 406.41, 377.93 404.70 C 377.20 402.99, 376.37 401.90, 374.41 400.85 C 372.45 399.81, 370.98 399.35, 368.13 399.49 C 365.29 399.64, 363.54 400.34, 360.19 401.59 C 356.84 402.83, 354.93 403.85, 351.37 405.72 C 347.81 407.59, 345.79 408.74, 342.39 410.95 C 338.99 413.16, 337.19 414.38, 334.39 416.78 C 331.59 419.17, 330.09 420.33, 328.39 422.91 C 326.68 425.49, 326.19 427.02, 325.86 429.68 C 325.53 432.34, 325.71 433.81, 326.74 436.21 C 327.78 438.61, 328.75 439.93, 331.05 441.66 C 333.35 443.40, 334.99 444.08, 338.24 444.88 C 341.49 445.67, 343.46 445.54, 347.28 445.63 C 351.11 445.73, 353.24 445.64, 357.36 445.36 C 361.48 445.08, 364.02 444.75, 367.87 444.25 C 371.71 443.74, 373.79 443.73, 376.59 442.83 C 379.39 441.93, 380.94 440.89, 381.87 439.75 C 382.81 438.60, 382.56 437.73, 381.27 437.10 C 379.98 436.46, 378.27 436.40, 375.42 436.55 C 372.56 436.71, 370.70 437.38, 367.01 437.89 C 363.33 438.40, 360.85 438.91, 357.00 439.09 C 353.14 439.28, 351.10 439.21, 347.74 438.82 C 344.38 438.44, 342.75 437.86, 340.20 437.18 C 337.65 436.50, 336.60 436.17, 335.00 435.43 C 333.39 434.68, 332.81 434.41, 332.16 433.47 C 331.52 432.54, 331.39 432.06, 331.78 430.75 C 332.17 429.44, 332.73 428.75, 334.11 426.93 C 335.49 425.11, 336.36 423.79, 338.69 421.65 C 341.03 419.51, 342.68 418.21, 345.79 416.23 C 348.90 414.25, 350.90 413.18, 354.25 411.77 C 357.59 410.37, 359.57 409.88, 362.51 409.22 C 365.45 408.55, 366.91 408.75, 368.95 408.45 C 370.99 408.15, 371.67 408.02, 372.70 407.72 C 373.72 407.43, 373.91 407.15, 374.08 406.97 C 374.25 406.79, 374.15 406.61, 373.54 406.81 C 372.93 407.01, 372.43 407.30, 371.03 407.98 C 369.63 408.65, 368.63 409.21, 366.53 410.19 C 364.44 411.17, 363.03 411.83, 360.55 412.87 C 358.07 413.91, 356.62 414.50, 354.13 415.38 C 351.64 416.25, 350.27 416.56, 348.10 417.23 C 345.93 417.90, 344.81 418.07, 343.30 418.73 C 341.79 419.38, 341.36 419.80, 340.55 420.50 C 339.73 421.21, 339.49 421.33, 339.20 422.26 C 338.92 423.20, 338.72 424.24, 339.13 425.20" style="stroke: black; fill: black;"/><path d="M 427.64,410.91 C 426.72 410.89, 426.46 410.93, 425.47 411.68 C 424.48 412.44, 423.69 412.85, 422.69 414.70 C 421.68 416.55, 421.38 418.00, 420.43 420.94 C 419.48 423.89, 419.16 425.84, 417.93 429.41 C 416.70 432.98, 415.85 435.02, 414.29 438.79 C 412.72 442.56, 411.79 444.58, 410.11 448.25 C 408.43 451.93, 407.56 453.83, 405.89 457.18 C 404.21 460.52, 403.34 462.16, 401.75 464.96 C 400.17 467.77, 399.27 469.01, 397.95 471.21 C 396.63 473.41, 396.15 474.41, 395.15 475.94 C 394.15 477.47, 393.62 477.96, 392.94 478.85 C 392.27 479.73, 392.25 479.88, 391.78 480.38 C 391.30 480.88, 390.82 480.65, 390.57 481.36 C 390.31 482.08, 389.96 483.23, 390.52 483.97 C 391.08 484.70, 392.06 485.13, 393.37 485.02 C 394.68 484.92, 395.63 484.44, 397.07 483.42 C 398.50 482.41, 399.13 481.68, 400.54 479.96 C 401.96 478.25, 402.75 477.26, 404.14 474.85 C 405.53 472.44, 406.08 470.94, 407.49 467.90 C 408.90 464.87, 409.62 463.15, 411.18 459.70 C 412.74 456.24, 413.58 454.33, 415.29 450.64 C 417.00 446.94, 417.95 444.94, 419.74 441.24 C 421.53 437.54, 422.47 435.53, 424.25 432.14 C 426.02 428.75, 427.21 427.10, 428.61 424.29 C 430.01 421.47, 430.73 420.14, 431.26 418.06 C 431.80 415.98, 431.51 415.13, 431.28 413.87 C 431.05 412.61, 430.83 412.34, 430.10 411.75 C 429.38 411.16, 428.57 410.92, 427.64 410.91" style="stroke: black; fill: black;"/><path d="M 431.64,373.95 C 432.39 374.84, 432.93 375.54, 433.17 375.48 C 433.41 375.42, 433.28 374.79, 432.84 373.63 C 432.40 372.47, 431.72 370.70, 430.96 369.69 C 430.21 368.68, 429.37 368.32, 429.07 368.58 C 428.76 368.85, 428.90 369.93, 429.42 371.00 C 429.93 372.07, 430.89 373.05, 431.64 373.95" style="stroke: black; fill: black;"/><path d="M 491.04,405.53 C 491.24 404.32, 490.89 403.40, 489.91 402.14 C 488.92 400.87, 488.06 400.09, 486.12 399.21 C 484.17 398.34, 482.73 397.93, 480.18 397.76 C 477.64 397.58, 476.22 397.73, 473.41 398.34 C 470.59 398.95, 469.08 399.47, 466.11 400.82 C 463.13 402.17, 461.52 403.14, 458.53 405.08 C 455.54 407.02, 453.91 408.21, 451.15 410.51 C 448.40 412.80, 446.90 414.04, 444.75 416.56 C 442.59 419.07, 441.54 420.48, 440.39 423.08 C 439.24 425.69, 438.96 427.14, 439.00 429.59 C 439.03 432.03, 439.37 433.31, 440.57 435.30 C 441.77 437.28, 442.77 438.33, 445.00 439.51 C 447.23 440.70, 448.81 441.16, 451.72 441.23 C 454.63 441.29, 456.33 440.88, 459.56 439.86 C 462.79 438.85, 464.51 437.93, 467.87 436.16 C 471.24 434.39, 473.07 433.27, 476.38 431.02 C 479.70 428.78, 481.41 427.40, 484.46 424.92 C 487.52 422.44, 489.09 421.03, 491.65 418.63 C 494.22 416.23, 495.83 415.14, 497.29 412.92 C 498.75 410.70, 499.14 409.19, 498.97 407.52 C 498.80 405.86, 497.91 404.97, 496.44 404.60 C 494.96 404.23, 493.55 404.51, 491.61 405.67 C 489.66 406.83, 488.38 408.01, 486.72 410.41 C 485.06 412.81, 484.50 414.82, 483.31 417.67 C 482.11 420.52, 481.43 422.04, 480.76 424.66 C 480.08 427.28, 479.85 428.53, 479.93 430.75 C 480.01 432.98, 480.26 434.09, 481.15 435.79 C 482.03 437.49, 482.96 438.28, 484.37 439.26 C 485.78 440.23, 486.79 440.54, 488.19 440.66 C 489.58 440.79, 490.44 440.50, 491.35 439.87 C 492.26 439.24, 492.66 438.53, 492.74 437.52 C 492.82 436.51, 492.27 435.61, 491.75 434.83 C 491.22 434.04, 490.71 433.92, 490.10 433.59 C 489.50 433.26, 489.30 433.20, 488.72 433.18 C 488.13 433.16, 487.71 433.47, 487.17 433.50 C 486.64 433.53, 486.22 433.74, 486.04 433.33 C 485.87 432.91, 485.87 432.59, 486.31 431.43 C 486.74 430.27, 487.18 429.40, 488.22 427.52 C 489.27 425.65, 490.02 424.30, 491.54 422.04 C 493.06 419.78, 494.51 418.50, 495.83 416.21 C 497.16 413.93, 497.77 412.57, 498.17 410.62 C 498.57 408.66, 498.44 407.49, 497.84 406.45 C 497.25 405.42, 496.50 405.07, 495.20 405.42 C 493.91 405.78, 493.04 406.51, 491.38 408.21 C 489.72 409.92, 489.07 411.54, 486.90 413.93 C 484.73 416.33, 483.32 417.81, 480.53 420.18 C 477.74 422.55, 476.08 423.83, 472.96 425.79 C 469.85 427.75, 468.05 428.69, 464.95 429.97 C 461.85 431.24, 460.14 431.58, 457.46 432.18 C 454.78 432.78, 453.55 432.81, 451.57 432.96 C 449.59 433.12, 448.80 433.14, 447.58 432.97 C 446.35 432.80, 445.94 432.70, 445.46 432.10 C 444.97 431.51, 444.88 431.14, 445.15 429.98 C 445.42 428.82, 445.75 428.05, 446.79 426.32 C 447.83 424.59, 448.57 423.43, 450.35 421.35 C 452.12 419.27, 453.28 417.93, 455.68 415.93 C 458.07 413.92, 459.63 412.86, 462.34 411.33 C 465.04 409.79, 466.65 409.21, 469.21 408.24 C 471.77 407.28, 473.06 406.91, 475.13 406.49 C 477.20 406.07, 478.00 406.01, 479.56 406.14 C 481.12 406.27, 481.68 406.74, 482.93 407.15 C 484.18 407.55, 484.62 407.98, 485.81 408.19 C 487.00 408.40, 487.84 408.72, 488.89 408.19 C 489.93 407.66, 490.84 406.74, 491.04 405.53" style="stroke: black; fill: black;"/><path d="M 522.04,407.10 C 520.98 407.23, 520.68 407.63, 519.64 408.57 C 518.60 409.51, 517.99 410.11, 516.87 411.78 C 515.74 413.46, 515.13 414.77, 514.00 416.94 C 512.88 419.10, 512.29 420.48, 511.23 422.60 C 510.17 424.71, 509.32 425.73, 508.70 427.49 C 508.09 429.26, 507.82 430.18, 508.17 431.43 C 508.53 432.68, 509.27 433.40, 510.47 433.73 C 511.67 434.07, 512.67 434.00, 514.18 433.12 C 515.68 432.23, 516.51 431.38, 518.00 429.32 C 519.48 427.25, 519.79 425.41, 521.62 422.78 C 523.45 420.15, 524.69 418.60, 527.13 416.16 C 529.57 413.71, 531.11 412.43, 533.83 410.55 C 536.56 408.66, 538.19 407.90, 540.76 406.71 C 543.32 405.52, 544.68 405.17, 546.66 404.60 C 548.63 404.03, 549.45 403.84, 550.63 403.84 C 551.81 403.84, 552.14 403.99, 552.57 404.59 C 552.99 405.20, 552.92 405.61, 552.77 406.87 C 552.63 408.13, 552.37 408.98, 551.83 410.89 C 551.30 412.81, 550.91 414.09, 550.11 416.43 C 549.31 418.77, 548.68 420.19, 547.82 422.61 C 546.96 425.03, 546.42 426.42, 545.80 428.53 C 545.18 430.64, 544.85 431.59, 544.72 433.16 C 544.60 434.72, 544.83 435.42, 545.16 436.36 C 545.49 437.29, 545.83 437.56, 546.38 437.83 C 546.93 438.11, 547.39 437.88, 547.91 437.73 C 548.43 437.58, 548.39 437.54, 548.98 437.07 C 549.57 436.60, 550.05 436.48, 550.88 435.37 C 551.71 434.25, 552.13 433.41, 553.14 431.51 C 554.15 429.61, 554.80 428.33, 555.91 425.88 C 557.02 423.44, 557.80 422.01, 558.68 419.29 C 559.57 416.57, 560.11 414.99, 560.33 412.28 C 560.56 409.58, 560.52 408.08, 559.80 405.75 C 559.08 403.42, 558.38 402.22, 556.75 400.64 C 555.11 399.06, 553.95 398.45, 551.62 397.86 C 549.29 397.28, 547.89 397.23, 545.11 397.73 C 542.33 398.23, 540.73 398.88, 537.72 400.36 C 534.71 401.84, 533.09 402.98, 530.05 405.14 C 527.00 407.29, 525.39 408.64, 522.49 411.12 C 519.58 413.60, 518.10 415.08, 515.54 417.54 C 512.98 420.00, 511.29 421.12, 509.68 423.41 C 508.07 425.71, 507.68 427.13, 507.49 429.02 C 507.30 430.91, 507.83 431.88, 508.71 432.87 C 509.60 433.86, 510.56 434.16, 511.90 433.96 C 513.23 433.76, 514.00 433.20, 515.41 431.86 C 516.82 430.53, 517.49 429.32, 518.95 427.29 C 520.41 425.25, 521.41 423.96, 522.70 421.68 C 524.00 419.39, 524.75 417.99, 525.43 415.86 C 526.12 413.72, 526.21 412.58, 526.12 410.99 C 526.03 409.40, 525.80 408.69, 524.98 407.91 C 524.16 407.13, 523.11 406.96, 522.04 407.10" style="stroke: black; fill: black;"/><path d="M 616.13,410.02 C 616.42 408.93, 616.25 408.18, 615.45 407.11 C 614.65 406.04, 613.89 405.32, 612.14 404.66 C 610.39 404.00, 609.06 403.75, 606.69 403.80 C 604.32 403.85, 602.98 404.07, 600.28 404.91 C 597.59 405.75, 596.08 406.43, 593.23 408.00 C 590.38 409.57, 588.86 410.69, 586.05 412.75 C 583.24 414.81, 581.67 416.02, 579.17 418.31 C 576.67 420.59, 575.27 421.76, 573.56 424.18 C 571.84 426.59, 571.20 427.98, 570.60 430.38 C 570.01 432.79, 569.99 434.09, 570.58 436.20 C 571.16 438.31, 571.84 439.44, 573.52 440.93 C 575.20 442.43, 576.48 443.10, 578.99 443.68 C 581.50 444.26, 583.09 444.33, 586.06 443.83 C 589.03 443.33, 590.63 442.56, 593.85 441.19 C 597.08 439.82, 598.86 438.95, 602.18 436.97 C 605.50 434.99, 607.22 433.80, 610.45 431.28 C 613.69 428.76, 615.32 427.31, 618.35 424.38 C 621.37 421.45, 622.87 419.81, 625.56 416.61 C 628.26 413.41, 629.50 411.64, 631.81 408.38 C 634.13 405.11, 635.21 403.44, 637.13 400.30 C 639.05 397.15, 639.92 395.52, 641.41 392.65 C 642.91 389.77, 643.80 388.45, 644.59 385.93 C 645.39 383.41, 645.76 381.92, 645.38 380.04 C 644.99 378.16, 644.16 377.10, 642.66 376.53 C 641.17 375.95, 639.74 375.92, 637.90 377.16 C 636.07 378.41, 635.19 379.80, 633.48 382.75 C 631.78 385.71, 631.14 388.06, 629.38 391.94 C 627.61 395.82, 626.52 398.16, 624.66 402.14 C 622.79 406.11, 621.74 408.14, 620.06 411.80 C 618.38 415.45, 617.49 417.22, 616.24 420.43 C 614.99 423.64, 614.36 425.16, 613.81 427.86 C 613.26 430.56, 613.39 431.88, 613.48 433.91 C 613.57 435.95, 613.75 436.77, 614.25 438.04 C 614.75 439.31, 615.29 439.72, 615.97 440.25 C 616.66 440.78, 617.09 440.82, 617.67 440.68 C 618.25 440.53, 618.56 439.93, 618.89 439.52 C 619.22 439.10, 619.13 439.09, 619.31 438.60 C 619.49 438.11, 619.67 437.98, 619.79 437.07 C 619.90 436.16, 619.73 435.61, 619.89 434.04 C 620.05 432.47, 620.13 431.53, 620.58 429.22 C 621.04 426.92, 621.22 425.53, 622.16 422.51 C 623.10 419.49, 623.73 417.67, 625.27 414.11 C 626.80 410.55, 627.82 408.51, 629.83 404.71 C 631.83 400.90, 633.10 398.64, 635.29 395.09 C 637.48 391.55, 639.15 389.78, 640.78 386.98 C 642.41 384.19, 643.11 382.89, 643.43 381.11 C 643.75 379.33, 643.11 378.53, 642.38 378.10 C 641.66 377.66, 640.77 377.87, 639.80 378.93 C 638.83 379.98, 638.44 381.20, 637.53 383.37 C 636.63 385.55, 636.40 387.01, 635.27 389.80 C 634.13 392.58, 633.50 394.23, 631.88 397.30 C 630.25 400.38, 629.26 402.01, 627.15 405.16 C 625.04 408.31, 623.85 410.01, 621.32 413.05 C 618.78 416.08, 617.35 417.62, 614.47 420.32 C 611.59 423.01, 610.00 424.34, 606.91 426.52 C 603.83 428.70, 602.18 429.70, 599.06 431.21 C 595.93 432.72, 594.18 433.24, 591.30 434.05 C 588.42 434.86, 586.93 434.89, 584.65 435.26 C 582.37 435.62, 581.43 435.77, 579.90 435.88 C 578.37 435.98, 577.81 435.98, 577.01 435.80 C 576.21 435.61, 575.97 435.57, 575.91 434.94 C 575.84 434.30, 575.94 433.85, 576.69 432.63 C 577.43 431.42, 578.11 430.62, 579.62 428.86 C 581.13 427.10, 582.08 425.81, 584.23 423.83 C 586.39 421.85, 587.83 420.64, 590.38 418.97 C 592.94 417.29, 594.50 416.58, 597.00 415.44 C 599.49 414.30, 600.85 413.87, 602.86 413.27 C 604.86 412.66, 605.63 412.51, 607.01 412.42 C 608.40 412.33, 608.83 412.70, 609.79 412.82 C 610.75 412.94, 610.96 413.07, 611.81 413.01 C 612.65 412.96, 613.15 413.13, 614.02 412.53 C 614.88 411.93, 615.84 411.10, 616.13 410.02" style="stroke: black; fill: black;"/><path d="M 654.47,414.78 C 653.36 414.83, 652.92 415.25, 651.77 416.20 C 650.63 417.15, 649.97 417.83, 648.77 419.54 C 647.57 421.25, 646.90 422.56, 645.77 424.75 C 644.64 426.95, 644.11 428.39, 643.14 430.51 C 642.17 432.63, 641.46 433.65, 640.93 435.35 C 640.41 437.06, 640.17 437.89, 640.51 439.04 C 640.85 440.18, 641.54 440.77, 642.65 441.06 C 643.75 441.36, 644.77 441.29, 646.04 440.51 C 647.31 439.73, 647.84 438.88, 648.99 437.16 C 650.13 435.43, 650.46 434.14, 651.76 431.89 C 653.05 429.65, 653.70 428.18, 655.46 425.92 C 657.21 423.66, 658.38 422.48, 660.53 420.58 C 662.68 418.68, 663.97 417.86, 666.21 416.44 C 668.45 415.02, 669.65 414.44, 671.75 413.49 C 673.84 412.54, 674.85 412.16, 676.70 411.70 C 678.55 411.24, 679.36 411.27, 680.99 411.20 C 682.63 411.13, 683.36 411.48, 684.88 411.35 C 686.41 411.22, 687.69 411.36, 688.60 410.57 C 689.50 409.78, 689.95 408.57, 689.43 407.41 C 688.91 406.25, 687.72 405.42, 686.00 404.75 C 684.29 404.07, 683.04 404.04, 680.87 404.04 C 678.69 404.03, 677.53 404.23, 675.12 404.74 C 672.71 405.25, 671.42 405.54, 668.82 406.58 C 666.22 407.62, 664.76 408.30, 662.12 409.95 C 659.49 411.61, 658.15 412.74, 655.62 414.86 C 653.09 416.98, 651.83 418.24, 649.47 420.56 C 647.12 422.88, 645.74 424.10, 643.86 426.47 C 641.98 428.85, 641.02 430.22, 640.08 432.43 C 639.14 434.65, 638.96 435.84, 639.16 437.53 C 639.36 439.22, 640.03 440.05, 641.08 440.88 C 642.12 441.70, 643.06 441.94, 644.37 441.65 C 645.69 441.35, 646.34 440.74, 647.65 439.39 C 648.96 438.05, 649.57 436.90, 650.93 434.90 C 652.28 432.91, 653.19 431.62, 654.43 429.42 C 655.67 427.21, 656.40 425.91, 657.14 423.87 C 657.89 421.82, 658.10 420.75, 658.14 419.17 C 658.18 417.59, 658.08 416.84, 657.34 415.96 C 656.61 415.08, 655.59 414.73, 654.47 414.78" style="stroke: black; fill: black;"/><path d="M 727.66,417.95 C 727.72 416.82, 727.41 416.16, 726.41 415.18 C 725.42 414.19, 724.58 413.54, 722.69 413.04 C 720.79 412.54, 719.40 412.43, 716.93 412.67 C 714.47 412.90, 713.06 413.22, 710.37 414.22 C 707.67 415.22, 706.14 416.01, 703.46 417.69 C 700.77 419.36, 699.27 420.41, 696.94 422.58 C 694.61 424.74, 693.35 426.03, 691.80 428.52 C 690.24 431.00, 689.56 432.44, 689.15 435.00 C 688.75 437.56, 688.84 439.05, 689.79 441.30 C 690.73 443.55, 691.68 444.74, 693.86 446.26 C 696.04 447.78, 697.60 448.51, 700.67 448.91 C 703.74 449.30, 705.63 448.88, 709.19 448.25 C 712.75 447.62, 714.77 446.98, 718.46 445.74 C 722.16 444.51, 724.17 443.75, 727.66 442.09 C 731.16 440.43, 732.98 439.45, 735.94 437.43 C 738.90 435.41, 740.47 434.36, 742.46 431.98 C 744.45 429.61, 745.14 428.10, 745.90 425.54 C 746.66 422.98, 746.69 421.52, 746.25 419.18 C 745.80 416.83, 745.10 415.59, 743.67 413.83 C 742.24 412.08, 741.03 410.94, 739.08 410.39 C 737.13 409.84, 735.10 410.19, 733.91 411.10 C 732.72 412.02, 732.67 413.73, 733.13 414.98 C 733.60 416.23, 735.13 416.64, 736.25 417.35 C 737.36 418.05, 737.91 417.89, 738.70 418.50 C 739.48 419.10, 739.95 419.41, 740.16 420.39 C 740.38 421.36, 740.40 422.00, 739.76 423.38 C 739.13 424.75, 738.53 425.55, 736.99 427.27 C 735.45 428.99, 734.48 430.18, 732.07 431.98 C 729.65 433.78, 728.02 434.81, 724.91 436.27 C 721.80 437.73, 719.87 438.41, 716.52 439.30 C 713.17 440.19, 711.18 440.47, 708.17 440.72 C 705.17 440.98, 703.69 440.68, 701.48 440.57 C 699.26 440.46, 698.37 440.46, 697.10 440.15 C 695.82 439.84, 695.42 439.72, 695.11 439.03 C 694.80 438.34, 694.94 437.90, 695.55 436.72 C 696.15 435.54, 696.75 434.69, 698.13 433.13 C 699.52 431.57, 700.51 430.52, 702.48 428.92 C 704.46 427.32, 705.80 426.44, 707.99 425.14 C 710.19 423.84, 711.48 423.17, 713.45 422.43 C 715.41 421.68, 716.28 421.57, 717.82 421.40 C 719.36 421.23, 719.98 421.52, 721.16 421.57 C 722.34 421.62, 722.71 421.79, 723.70 421.64 C 724.69 421.50, 725.32 421.57, 726.11 420.83 C 726.91 420.09, 727.60 419.08, 727.66 417.95" style="stroke: black; fill: black;"/><path d="M 871.23,380.70 C 870.12 380.87, 869.68 381.36, 868.46 382.65 C 867.24 383.95, 866.33 384.70, 865.14 387.18 C 863.95 389.65, 863.87 391.64, 862.51 395.05 C 861.15 398.46, 860.25 400.45, 858.35 404.21 C 856.45 407.97, 855.20 410.06, 852.99 413.84 C 850.78 417.61, 849.53 419.63, 847.28 423.08 C 845.03 426.54, 843.82 428.27, 841.74 431.12 C 839.66 433.97, 838.34 435.09, 836.89 437.31 C 835.45 439.54, 835.12 440.65, 834.52 442.25 C 833.93 443.84, 833.73 444.43, 833.93 445.30 C 834.12 446.17, 834.59 446.60, 835.50 446.60 C 836.41 446.60, 837.04 446.34, 838.48 445.30 C 839.92 444.27, 841.04 443.59, 842.71 441.42 C 844.37 439.26, 844.95 437.54, 846.79 434.46 C 848.64 431.38, 849.76 429.57, 851.93 426.01 C 854.10 422.44, 855.34 420.42, 857.66 416.64 C 859.98 412.86, 861.28 410.78, 863.53 407.11 C 865.79 403.44, 866.95 401.50, 868.93 398.28 C 870.90 395.05, 872.28 393.58, 873.43 390.99 C 874.57 388.39, 874.53 387.14, 874.65 385.30 C 874.77 383.46, 874.72 382.73, 874.03 381.81 C 873.35 380.88, 872.35 380.53, 871.23 380.70" style="stroke: black; fill: black;"/><path d="M 859.64,379.66 C 860.84 379.72, 861.40 379.00, 862.88 378.17 C 864.36 377.34, 865.15 376.78, 867.06 375.52 C 868.97 374.26, 869.95 373.12, 872.42 371.87 C 874.89 370.61, 876.46 369.97, 879.42 369.23 C 882.38 368.48, 884.20 368.26, 887.21 368.14 C 890.22 368.02, 891.83 368.18, 894.48 368.62 C 897.12 369.06, 898.42 369.53, 900.43 370.36 C 902.43 371.18, 903.35 371.69, 904.51 372.73 C 905.68 373.77, 906.08 374.28, 906.25 375.57 C 906.41 376.87, 906.17 377.41, 905.35 379.21 C 904.52 381.00, 904.01 382.15, 902.13 384.54 C 900.25 386.92, 898.92 388.48, 895.96 391.14 C 893.00 393.79, 891.01 395.27, 887.33 397.80 C 883.64 400.34, 881.40 401.63, 877.54 403.80 C 873.68 405.97, 871.55 407.00, 868.03 408.65 C 864.52 410.31, 862.58 410.67, 859.97 412.08 C 857.35 413.49, 856.34 414.19, 854.95 415.69 C 853.55 417.19, 853.25 417.95, 852.99 419.60 C 852.73 421.24, 852.94 422.26, 853.65 423.90 C 854.36 425.55, 855.03 426.42, 856.56 427.80 C 858.09 429.19, 859.21 429.63, 861.30 430.85 C 863.39 432.06, 864.66 432.59, 867.00 433.89 C 869.34 435.19, 870.60 435.93, 872.98 437.35 C 875.37 438.77, 876.58 439.57, 878.92 441.00 C 881.27 442.43, 882.44 443.19, 884.71 444.51 C 886.97 445.84, 888.09 446.54, 890.27 447.60 C 892.44 448.67, 893.64 449.19, 895.58 449.86 C 897.52 450.54, 898.48 450.74, 899.95 450.98 C 901.43 451.23, 901.99 451.22, 902.97 451.07 C 903.96 450.92, 904.36 450.63, 904.88 450.22 C 905.40 449.81, 905.49 449.53, 905.56 449.02 C 905.64 448.52, 905.38 448.17, 905.25 447.71 C 905.12 447.26, 905.17 447.18, 904.92 446.76 C 904.66 446.34, 904.57 446.07, 903.97 445.62 C 903.38 445.18, 903.06 445.11, 901.94 444.55 C 900.83 443.99, 900.05 443.59, 898.40 442.83 C 896.75 442.07, 895.64 441.73, 893.70 440.74 C 891.76 439.75, 890.78 439.18, 888.70 437.88 C 886.62 436.58, 885.52 435.76, 883.28 434.24 C 881.04 432.72, 879.82 431.85, 877.48 430.27 C 875.15 428.69, 873.88 427.84, 871.59 426.33 C 869.31 424.82, 868.13 423.93, 866.05 422.72 C 863.97 421.50, 862.90 420.84, 861.21 420.24 C 859.52 419.65, 858.59 419.74, 857.60 419.76 C 856.61 419.78, 856.16 420.26, 856.26 420.35 C 856.35 420.44, 856.70 420.64, 858.09 420.21 C 859.48 419.78, 860.68 419.49, 863.19 418.19 C 865.71 416.89, 867.28 415.66, 870.67 413.70 C 874.07 411.74, 876.23 410.66, 880.16 408.39 C 884.09 406.11, 886.39 404.84, 890.32 402.32 C 894.25 399.80, 896.38 398.44, 899.82 395.79 C 903.26 393.14, 905.05 391.86, 907.52 389.07 C 909.99 386.28, 911.17 384.77, 912.17 381.85 C 913.18 378.93, 913.09 377.19, 912.54 374.45 C 911.99 371.72, 911.24 370.32, 909.42 368.16 C 907.61 366.00, 906.22 364.99, 903.46 363.66 C 900.69 362.32, 898.91 361.98, 895.61 361.48 C 892.31 360.98, 890.48 361.03, 886.94 361.16 C 883.40 361.29, 881.48 361.50, 877.92 362.14 C 874.36 362.77, 872.37 363.11, 869.14 364.34 C 865.91 365.56, 864.09 366.44, 861.77 368.26 C 859.45 370.07, 858.52 371.49, 857.55 373.42 C 856.58 375.35, 856.50 376.64, 856.92 377.89 C 857.33 379.13, 858.45 379.60, 859.64 379.66" style="stroke: black; fill: black;"/><path d="M 934.45,413.27 C 933.38 413.41, 933.06 413.79, 931.99 414.81 C 930.91 415.83, 930.24 416.50, 929.07 418.38 C 927.90 420.26, 927.27 421.68, 926.14 424.20 C 925.01 426.72, 924.49 428.32, 923.43 431.00 C 922.37 433.67, 921.67 435.12, 920.86 437.57 C 920.04 440.02, 919.72 441.31, 919.35 443.25 C 918.98 445.18, 918.86 445.96, 919.00 447.24 C 919.13 448.52, 919.57 449.01, 920.03 449.63 C 920.48 450.25, 920.82 450.25, 921.27 450.34 C 921.72 450.42, 921.88 450.17, 922.28 450.05 C 922.67 449.93, 922.75 450.05, 923.23 449.73 C 923.71 449.40, 924.10 449.29, 924.68 448.43 C 925.27 447.57, 925.40 446.97, 926.14 445.41 C 926.88 443.86, 927.31 442.80, 928.38 440.66 C 929.45 438.52, 930.17 437.18, 931.49 434.72 C 932.80 432.25, 933.74 430.84, 934.96 428.35 C 936.19 425.86, 936.93 424.49, 937.63 422.27 C 938.32 420.06, 938.48 418.92, 938.43 417.29 C 938.37 415.66, 938.14 414.93, 937.34 414.12 C 936.55 413.32, 935.52 413.14, 934.45 413.27" style="stroke: black; fill: black;"/><path d="M 951.43,382.60 C 952.01 383.24, 951.61 384.83, 951.30 385.33 C 951.00 385.84, 950.14 386.28, 949.92 385.12 C 949.69 383.95, 950.47 380.68, 950.19 379.51 C 949.91 378.34, 948.90 378.75, 948.54 379.28 C 948.18 379.81, 947.81 381.49, 948.39 382.16 C 948.97 382.82, 950.85 381.97, 951.43 382.60" style="stroke: black; fill: black;"/><path d="M 999.61,408.91 C 999.13 407.87, 998.51 407.41, 996.93 406.84 C 995.36 406.26, 994.21 405.86, 991.73 406.02 C 989.26 406.18, 987.55 406.51, 984.56 407.64 C 981.58 408.77, 980.03 409.90, 976.81 411.65 C 973.58 413.41, 971.73 414.37, 968.45 416.42 C 965.17 418.47, 963.37 419.66, 960.40 421.91 C 957.43 424.16, 955.78 425.26, 953.61 427.68 C 951.45 430.09, 950.54 431.45, 949.58 434.00 C 948.62 436.55, 948.39 437.99, 948.80 440.42 C 949.20 442.86, 949.83 444.22, 951.61 446.17 C 953.38 448.11, 954.70 449.17, 957.67 450.15 C 960.64 451.12, 962.58 450.94, 966.45 451.04 C 970.32 451.15, 972.57 450.98, 977.04 450.66 C 981.52 450.35, 984.41 450.02, 988.81 449.48 C 993.21 448.94, 995.70 448.80, 999.05 447.96 C 1002.40 447.12, 1004.37 446.37, 1005.57 445.29 C 1006.77 444.20, 1006.53 443.12, 1005.05 442.54 C 1003.57 441.96, 1001.55 442.16, 998.17 442.38 C 994.79 442.61, 992.42 443.20, 988.14 443.66 C 983.86 444.12, 980.99 444.57, 976.76 444.67 C 972.53 444.78, 970.34 444.63, 966.98 444.17 C 963.62 443.72, 962.22 442.98, 959.98 442.40 C 957.74 441.83, 956.93 441.85, 955.80 441.30 C 954.67 440.75, 954.40 440.54, 954.33 439.63 C 954.26 438.73, 954.53 438.20, 955.45 436.78 C 956.37 435.36, 957.13 434.45, 958.93 432.52 C 960.73 430.58, 961.88 429.20, 964.46 427.10 C 967.05 425.01, 968.76 423.84, 971.85 422.06 C 974.93 420.28, 976.80 419.41, 979.88 418.20 C 982.96 416.99, 984.63 416.70, 987.25 416.02 C 989.88 415.34, 991.06 415.29, 992.99 414.82 C 994.92 414.35, 995.62 414.24, 996.89 413.68 C 998.16 413.12, 998.81 412.98, 999.35 412.02 C 999.90 411.07, 1000.09 409.95, 999.61 408.91" style="stroke: black; fill: black;"/><path d="M 1061.86,420.53 C 1062.16 419.45, 1062.01 418.71, 1061.23 417.65 C 1060.46 416.59, 1059.69 415.92, 1057.97 415.23 C 1056.25 414.55, 1054.98 414.26, 1052.62 414.25 C 1050.27 414.24, 1048.90 414.46, 1046.18 415.17 C 1043.47 415.88, 1041.98 416.44, 1039.07 417.80 C 1036.15 419.15, 1034.52 420.12, 1031.61 421.95 C 1028.71 423.79, 1027.05 424.82, 1024.55 426.98 C 1022.05 429.14, 1020.72 430.32, 1019.12 432.75 C 1017.52 435.18, 1016.90 436.61, 1016.56 439.12 C 1016.22 441.63, 1016.38 443.10, 1017.42 445.32 C 1018.46 447.54, 1019.48 448.72, 1021.77 450.21 C 1024.05 451.70, 1025.64 452.37, 1028.84 452.77 C 1032.04 453.16, 1034.01 452.72, 1037.77 452.18 C 1041.53 451.64, 1043.69 451.18, 1047.66 450.08 C 1051.62 448.98, 1053.78 448.21, 1057.57 446.66 C 1061.36 445.12, 1063.33 444.20, 1066.61 442.35 C 1069.90 440.49, 1071.63 439.59, 1074.01 437.38 C 1076.39 435.18, 1077.36 433.81, 1078.53 431.33 C 1079.71 428.86, 1079.99 427.45, 1079.90 425.02 C 1079.81 422.59, 1079.30 421.23, 1078.09 419.18 C 1076.87 417.13, 1075.81 415.99, 1073.83 414.76 C 1071.86 413.53, 1070.23 413.06, 1068.22 413.02 C 1066.21 412.99, 1064.78 413.61, 1063.80 414.59 C 1062.81 415.57, 1062.80 416.71, 1063.31 417.91 C 1063.81 419.11, 1064.97 419.77, 1066.31 420.58 C 1067.65 421.39, 1068.71 421.47, 1070.00 421.97 C 1071.30 422.48, 1072.01 422.45, 1072.79 423.09 C 1073.56 423.74, 1073.89 424.15, 1073.89 425.18 C 1073.89 426.21, 1073.74 426.82, 1072.81 428.23 C 1071.88 429.64, 1071.12 430.49, 1069.24 432.24 C 1067.36 433.99, 1066.20 435.20, 1063.41 436.97 C 1060.62 438.74, 1058.76 439.68, 1055.30 441.08 C 1051.84 442.47, 1049.76 443.16, 1046.12 443.96 C 1042.49 444.76, 1040.40 444.99, 1037.14 445.07 C 1033.87 445.16, 1032.26 444.66, 1029.82 444.40 C 1027.38 444.14, 1026.41 444.12, 1024.95 443.76 C 1023.49 443.40, 1023.02 443.25, 1022.54 442.61 C 1022.06 441.96, 1022.06 441.60, 1022.56 440.52 C 1023.06 439.45, 1023.64 438.76, 1025.04 437.23 C 1026.43 435.71, 1027.42 434.63, 1029.54 432.89 C 1031.65 431.16, 1033.04 430.03, 1035.61 428.56 C 1038.17 427.09, 1039.80 426.52, 1042.36 425.56 C 1044.91 424.59, 1046.29 424.26, 1048.38 423.74 C 1050.47 423.22, 1051.36 423.05, 1052.80 422.96 C 1054.24 422.87, 1054.61 423.17, 1055.56 423.29 C 1056.51 423.41, 1056.72 423.60, 1057.56 423.55 C 1058.40 423.50, 1058.91 423.65, 1059.77 423.04 C 1060.63 422.44, 1061.57 421.61, 1061.86 420.53" style="stroke: black; fill: black;"/></svg>